<?xml version="1.0" encoding="UTF-8" standalone="no"?>
<svg width="161px" height="38px" viewBox="0 0 161 38" version="1.1" xmlns="http://www.w3.org/2000/svg" xmlns:xlink="http://www.w3.org/1999/xlink" xmlns:sketch="http://www.bohemiancoding.com/sketch/ns">
    <!-- Generator: Sketch 3.5.1 (25234) - http://www.bohemiancoding.com/sketch -->
    <title>Group</title>
    <desc>Created with Sketch.</desc>
    <defs>
        <path id="path-1" d="M0,0.199388235 L127.774588,0.199388235 L127.774588,11.6235294 L0,11.6235294 L0,0.199388235 Z"></path>
    </defs>
    <g id="Page-1" stroke="none" stroke-width="1" fill="none" fill-rule="evenodd" sketch:type="MSPage">
        <g id="Group" sketch:type="MSLayerGroup">
            <rect id="Rectangle-67" fill="#FFD50C" sketch:type="MSShapeGroup" x="0" y="0" width="161" height="38"></rect>
            <g id="CW-Logo" transform="translate(17.000000, 13.300000)">
                <path d="M34.7230118,5.79734706 C34.6192471,5.53067647 34.5152471,5.17504118 34.4263059,4.83371176 L34.3966588,4.83371176 C34.3225412,5.17504118 34.2039529,5.53067647 34.1001882,5.79734706 L33.4183059,7.69511176 L35.4048941,7.69511176 L34.7230118,5.79734706 Z M36.7093647,11.4010059 L35.9681882,9.4297 L32.8550118,9.4297 L32.1286588,11.4010059 L29.9639529,11.4010059 L33.6851294,1.86859412 L35.2712471,1.86859412 L38.9921882,11.4010059 L36.7093647,11.4010059 Z" id="Fill-1" fill="#0A0109" sketch:type="MSShapeGroup"></path>
                <path d="M48.2789412,11.4010953 L47.9674118,7.91738941 C47.9229412,7.36862471 47.8784706,6.77604824 47.8784706,6.16827176 L47.8490588,6.16827176 C47.6264706,6.77604824 47.33,7.41310706 47.0483529,7.96187176 L45.2695294,11.4310482 L44.35,11.4310482 L42.5563529,7.96187176 C42.2747059,7.41310706 41.9930588,6.79080118 41.7558824,6.18280118 L41.726,6.18280118 C41.726,6.80533059 41.6817647,7.38382471 41.6372941,7.91738941 L41.3408235,11.4010953 L39.1318824,11.4010953 L39.9469412,1.94289529 L41.8149412,1.94289529 L43.8758824,5.91613059 C44.1575294,6.46422471 44.5728235,7.30961294 44.8248235,7.93191882 L44.854,7.93191882 C45.0914118,7.30961294 45.4323529,6.56838941 45.7589412,5.91613059 L47.8043529,1.94289529 L49.6871765,1.94289529 L50.5321176,11.4010953 L48.2789412,11.4010953 Z" id="Fill-3" fill="#0A0109" sketch:type="MSShapeGroup"></path>
                <path d="M54.2456235,3.75165059 L53.3117412,3.75165059 L53.3117412,5.87160353 L54.2456235,5.87160353 C54.8385647,5.87160353 55.4315059,5.54525059 55.4315059,4.80425059 C55.4315059,4.09275647 54.8385647,3.75165059 54.2456235,3.75165059 M54.5719765,7.67995647 L53.3117412,7.67995647 L53.3117412,11.4010506 L51.1028,11.4010506 L51.1028,1.94285059 L54.5719765,1.94285059 C56.2023294,1.94285059 57.6256235,3.02518 57.6256235,4.80425059 C57.6256235,6.58309765 56.2023294,7.67995647 54.5719765,7.67995647" id="Fill-5" fill="#0A0109" sketch:type="MSShapeGroup"></path>
                <mask id="mask-2" sketch:name="Clip 8" fill="white">
                    <use xlink:href="#path-1"></use>
                </mask>
                <g id="Clip-8"></g>
                <path d="M58.2023529,1.94269412 L60.5,1.94269412 L60.5,11.4008941 L58.2023529,11.4008941 L58.2023529,1.94269412 Z" id="Fill-7" fill="#0A0109" sketch:type="MSShapeGroup" mask="url(#mask-2)"></path>
                <path d="M68.8478824,11.5052153 L65.1714118,7.47274471 C64.578,6.82048588 63.9114118,6.01980353 63.4069412,5.39727412 L63.3775294,5.41180353 C63.4069412,6.07948588 63.4217647,6.80550941 63.4217647,7.39853294 L63.4217647,11.4010506 L61.1238824,11.4010506 L61.1238824,1.94285059 L62.9770588,1.94285059 L66.1791765,5.47148588 C66.6238824,5.96056824 67.2914118,6.73174471 67.7210588,7.27983882 L67.7509412,7.26508588 C67.7210588,6.70179176 67.7062353,6.09401529 67.7062353,5.50076824 L67.7062353,1.94285059 L70.0041176,1.94285059 L70.0041176,11.5052153 L68.8478824,11.5052153 Z" id="Fill-9" fill="#0A0109" sketch:type="MSShapeGroup" mask="url(#mask-2)"></path>
                <path d="M75.6969176,11.6235294 C73.0877412,11.6235294 70.4489176,9.90414118 70.4489176,6.67212941 C70.4489176,3.41061176 73.1470353,1.72050588 75.6376235,1.72050588 C76.9569176,1.72050588 77.9950353,2.04685882 78.6470353,2.47648235 L78.4691529,4.49294118 C77.8171529,4.01838824 76.9126824,3.70701176 75.8750353,3.70701176 C74.1550353,3.70701176 72.7317412,4.86377647 72.7317412,6.73158824 C72.7317412,8.51043529 74.0811529,9.66652941 75.8004471,9.66652941 C76.3493882,9.66652941 76.7644471,9.57778824 77.0905647,9.38510588 L77.0905647,8.05085882 L75.3708,8.05085882 L75.3708,6.28654118 L79.1955059,6.28654118 L79.1955059,10.6453647 C78.3950353,11.2830941 77.2239765,11.6235294 75.6969176,11.6235294" id="Fill-10" fill="#0A0109" sketch:type="MSShapeGroup" mask="url(#mask-2)"></path>
                <path d="M91.6185647,11.4606882 L90.1510353,11.4606882 L88.7719765,7.27979412 C88.5646824,6.64251176 88.3571529,6.00500588 88.1496235,5.17504118 L88.1199765,5.17504118 C87.9124471,6.00500588 87.7049176,6.65748824 87.4973882,7.27979412 L86.1185647,11.4606882 L84.6510353,11.4606882 L81.4933882,1.94280588 L83.7018588,1.94280588 L84.9324471,5.76761765 C85.1253882,6.34611176 85.3030353,6.95388824 85.4366824,7.66515882 L85.4665647,7.66515882 C85.6143294,6.95388824 85.7776235,6.36064118 85.9703294,5.76761765 L87.2155059,1.94280588 L89.2020941,1.94280588 L90.4326824,5.75286471 C90.5955059,6.2719 90.7736235,6.98317059 90.9220941,7.66515882 L90.9515059,7.66515882 C91.0849176,6.98317059 91.2776235,6.31615882 91.4557412,5.76761765 L92.7157412,1.94280588 L94.7762118,1.94280588 L91.6185647,11.4606882 Z" id="Fill-11" fill="#0A0109" sketch:type="MSShapeGroup" mask="url(#mask-2)"></path>
                <path d="M99.1594588,3.73689765 C97.7364,3.73689765 96.4020471,4.89299176 96.4020471,6.65753294 C96.4020471,8.43638 97.7364,9.59269765 99.1594588,9.59269765 C100.582753,9.59269765 101.931694,8.43638 101.931694,6.65753294 C101.931694,4.89299176 100.582753,3.73689765 99.1594588,3.73689765 M99.1594588,11.6234624 C96.5502824,11.6234624 94.0745176,9.71116824 94.0745176,6.65753294 C94.0745176,3.63295647 96.5502824,1.72066235 99.1594588,1.72066235 C101.783459,1.72066235 104.259224,3.63295647 104.259224,6.65753294 C104.259224,9.71116824 101.783459,11.6234624 99.1594588,11.6234624" id="Fill-12" fill="#0A0109" sketch:type="MSShapeGroup" mask="url(#mask-2)"></path>
                <path d="M108.104776,3.75165059 L107.126424,3.75165059 L107.126424,5.87160353 L108.104776,5.87160353 C108.697953,5.87160353 109.290894,5.54525059 109.290894,4.80425059 C109.290894,4.09275647 108.697953,3.75165059 108.104776,3.75165059 L108.104776,3.75165059 Z M110.491365,11.4010506 L107.941718,7.67995647 L107.126424,7.67995647 L107.126424,11.4010506 L104.917247,11.4010506 L104.917247,1.94285059 L108.445718,1.94285059 C110.061482,1.94285059 111.4996,3.02518 111.4996,4.80425059 C111.4996,5.91608588 110.847365,6.80550941 110.046894,7.17634471 L113.056306,11.4010506 L110.491365,11.4010506 Z" id="Fill-13" fill="#0A0109" sketch:type="MSShapeGroup" mask="url(#mask-2)"></path>
                <path d="M113.097647,11.4010953 L113.097647,1.94289529 L115.395765,1.94289529 L115.395765,9.42978941 L119.190824,9.42978941 L119.190824,11.4010953 L113.097647,11.4010953 Z" id="Fill-14" fill="#0A0109" sketch:type="MSShapeGroup" mask="url(#mask-2)"></path>
                <path d="M122.437482,3.91480471 L121.725953,3.91480471 L121.725953,9.42972235 L122.437482,9.42972235 C124.082894,9.42972235 125.476541,8.51056941 125.476541,6.67204 C125.476541,4.83373412 124.082894,3.91480471 122.437482,3.91480471 M122.704541,11.4010282 L119.517012,11.4010282 L119.517012,1.94282824 L122.704541,1.94282824 C125.432071,1.94282824 127.774659,3.72189882 127.774659,6.67204 C127.774659,9.62218118 125.432071,11.4010282 122.704541,11.4010282" id="Fill-15" fill="#0A0109" sketch:type="MSShapeGroup" mask="url(#mask-2)"></path>
                <path d="M19.0497647,8.61176118 C19.0497647,9.46340824 18.8963529,10.2846553 18.6116471,11.0551612 C11.3954118,11.0542671 7.89023529,11.0815376 0.835176471,11.0869024 C0.543411765,10.3076788 0.385529412,9.47592588 0.385529412,8.61176118 C0.385529412,4.16777294 4.56364706,0.565372941 9.71752941,0.565372941 C14.8716471,0.565372941 19.0497647,4.16777294 19.0497647,8.61176118" id="Fill-16" fill="#0088C5" sketch:type="MSShapeGroup" mask="url(#mask-2)"></path>
                <path d="M9.7176,0.931648235 C4.78442353,0.931648235 0.771011765,4.37690706 0.771011765,8.61167176 C0.771011765,9.32942471 0.8856,10.0375659 1.11242353,10.7204482 C4.16607059,10.7179894 6.55524706,10.71106 8.89242353,10.7045776 C11.7305412,10.6967541 14.4921882,10.6889306 18.2738353,10.6889306 L18.3331294,10.6889306 C18.5528941,10.0165541 18.6641882,9.31891882 18.6641882,8.61167176 C18.6641882,4.37690706 14.6507765,0.931648235 9.7176,0.931648235 L9.7176,0.931648235 Z M0.563247059,11.4534012 L0.472188235,11.2095306 C0.158776471,10.3730835 -4.70588235e-05,9.49908353 -4.70588235e-05,8.61167176 C-4.70588235e-05,3.97298941 4.35924706,0.199365882 9.7176,0.199365882 C15.0759529,0.199365882 19.4352471,3.97298941 19.4352471,8.61167176 C19.4352471,9.48790706 19.2804235,10.3509541 18.9752471,11.1764482 L18.8846588,11.4212129 L18.2738353,11.4212129 C14.4928941,11.4212129 11.7321882,11.4290365 8.89477647,11.4370835 C6.48677647,11.4437894 4.02371765,11.4507188 0.835482353,11.4531776 L0.563247059,11.4534012 Z" id="Fill-17" fill="#0A0109" sketch:type="MSShapeGroup" mask="url(#mask-2)"></path>
                <path d="M17.2576,8.75540118 L18.9331294,8.81553059 L18.5538353,10.73766 L17.2576,8.75540118 Z" id="Fill-18" fill="#006DB2" sketch:type="MSShapeGroup" mask="url(#mask-2)"></path>
                <path d="M8.92371765,2.03414 C8.92371765,2.03414 7.17901176,3.98979882 6.92065882,4.27926941 C6.81312941,4.05931647 6.53924706,3.50049294 6.53924706,3.50049294 L5.11477647,5.14410471 C5.11477647,5.14410471 4.14536471,7.34519882 4.06465882,7.52916353 C3.85524706,7.50144588 0.898070588,7.11272824 0.898070588,7.11272824 L0.0710117647,8.81266941 L19.3684235,8.90051647 L18.5406588,6.52842235 C18.5406588,6.52842235 17.2272471,6.90685765 17.0752471,6.95111647 C16.9547765,6.83309294 13.9378353,3.87535176 13.9378353,3.87535176 C13.9378353,3.87535176 11.8258353,5.30974 11.6051294,5.45972824 C11.4463059,5.23843412 9.04912941,1.89376353 9.04912941,1.89376353 L8.92371765,2.03414 Z" id="Fill-19" fill="#0A0109" sketch:type="MSShapeGroup" mask="url(#mask-2)"></path>
                <path d="M8.78562353,2.65494824 L6.85244706,5.00848941 L6.47668235,4.25966588 L5.65409412,5.76468941 L4.21527059,6.23030118 L4.25362353,7.49726588 L8.39432941,8.41731294 L14.7164471,8.01272471 L14.1204471,6.30004235 L13.1512706,6.19699529 L13.7919765,4.49280706 L11.4006824,6.04901882 L11.2489176,7.13537176 L11.1350353,7.99551294 L10.1877412,7.49726588 L9.88468235,7.31643059 L8.89903529,4.87236 L7.87597647,4.69174824 L8.78562353,2.65494824 Z" id="Fill-20" fill="#EFBA2D" sketch:type="MSShapeGroup" mask="url(#mask-2)"></path>
                <path d="M9.03858824,2.79979529 L8.40588235,4.42150118 L9.16541176,4.56903059 L9.79835294,6.19118353 L9.79835294,4.56903059 L10.9376471,5.60084235 L9.03858824,2.79979529 Z" id="Fill-21" fill="#FEFEFE" sketch:type="MSShapeGroup" mask="url(#mask-2)"></path>
                <path d="M14.0833882,4.58867882 L13.7245647,5.75036118 L14.2332706,5.84916118 L14.8518588,6.85951412 L14.6572706,5.84916118 L15.4200941,6.54053765 L14.0833882,4.58867882 Z" id="Fill-22" fill="#FEFEFE" sketch:type="MSShapeGroup" mask="url(#mask-2)"></path>
                <path d="M18.4385412,10.3428176 L16.6837176,7.84197059 C16.6837176,7.84197059 15.9578353,7.44006471 15.0804235,7.39692353 C14.2030118,7.35400588 13.2512471,7.28404118 13.2512471,7.28404118 C13.2512471,7.28404118 11.3427765,7.22458235 10.5277176,7.37054706 C9.71077647,7.38552353 7.88418824,8.35452353 7.88418824,8.35452353 L6.94207059,8.20185294 L0.423011765,7.75278235 L0.835247059,11.0869471 L18.6114824,11.0552059 L18.7519529,10.3933353 L18.4385412,10.3428176 Z" id="Fill-23" fill="#0A0109" sketch:type="MSShapeGroup" mask="url(#mask-2)"></path>
                <path d="M18.1438588,10.6086835 C17.8125647,10.7097188 15.7695059,10.7106129 15.7695059,10.7106129 C15.7695059,10.7106129 14.5363294,10.3759894 14.6516235,9.99867176 C14.8111529,9.47717765 16.3483294,9.28650706 16.7784471,8.58104824 C16.7784471,8.58104824 18.1643294,10.5080953 18.1438588,10.6086835" id="Fill-24" fill="#EFBA2D" sketch:type="MSShapeGroup" mask="url(#mask-2)"></path>
                <path d="M16.3047059,8.58426706 C16.9562353,7.92731412 15.4089412,7.67651412 15.2124706,7.65147882 C14.7023529,7.58665529 13.9202353,7.55983176 13.9202353,7.55983176 C13.9202353,7.55983176 15.7463529,7.81331412 15.4009412,8.19197294 C15.0548235,8.57107882 12.3957647,8.81159647 10.5741176,9.59462 C9.028,10.2587259 8.70823529,10.8510788 8.65011765,11.0147024 L15.1585882,11.0147024 C12.2545882,9.80049059 15.6637647,9.23093765 16.3047059,8.58426706" id="Fill-25" fill="#FEFEFE" sketch:type="MSShapeGroup" mask="url(#mask-2)"></path>
                <path d="M0.749529412,8.88878118 L2.03305882,8.94980471 L2.36317647,9.33226353 L1.48294118,10.2654988 L0.896352941,10.3110988 L0.419647059,9.80681647 L0.236117647,8.94980471 L0.749529412,8.88878118 Z" id="Fill-26" fill="#8F963E" sketch:type="MSShapeGroup" mask="url(#mask-2)"></path>
                <path d="M0.812729412,10.2886788 L0.934847059,10.1442788 L0.808023529,10.0139612 L1.37461176,9.43211412 L1.00661176,9.48330235 L1.58731765,8.83707882 L1.14331765,8.91799647 L1.87555294,8.04980824 L1.41625882,8.19487882 L2.95578824,6.24011412 L3.67602353,7.15502 L3.4532,7.11322 L3.35296471,6.97440824 L4.92472941,4.53838471 L6.45602353,6.84207882 L5.84355294,6.69544353 L6.71084706,7.79677294 L6.17767059,7.71809059 L7.05131765,8.75146706 L6.48425882,8.69983176 L7.2212,9.37109059 L6.09649412,8.89273765 L5.39790588,8.76800824 L4.2292,9.69453765 L3.28755294,9.80429059 L2.71061176,9.92902 L1.05555294,10.9516671 L0.812729412,10.2886788 Z" id="Fill-27" fill="#0A0109" sketch:type="MSShapeGroup" mask="url(#mask-2)"></path>
                <path d="M3.06251765,9.38801176 L2.41898824,9.47205882 L3.39992941,8.5652 L2.90934118,8.62085882 L3.49192941,7.97664706 L3.32157647,7.77770588 L3.61357647,7.84208235 L3.66204706,7.78843529 L2.94369412,6.84402353 L2.16628235,7.866 L2.56581176,7.77770588 L1.91781176,8.53457647 L2.41451765,8.41677647 L1.63710588,9.19309412 L2.23098824,9.10457647 L1.44134118,9.76130588 C1.44134118,9.76130588 1.71287059,9.76287059 1.74510588,9.76287059 L2.03145882,9.76287059 L1.20134118,10.3053765 L1.25569412,10.4039529 L3.06251765,9.38801176 Z" id="Fill-28" fill="#4D8037" sketch:type="MSShapeGroup" mask="url(#mask-2)"></path>
                <path d="M9.7176,0.931648235 C4.78442353,0.931648235 0.771011765,4.37690706 0.771011765,8.61167176 C0.771011765,9.32942471 0.8856,10.0375659 1.11242353,10.7204482 C4.16583529,10.7179894 6.55524706,10.71106 8.89265882,10.7045776 C11.7453647,10.6965306 14.5131294,10.6864718 18.3331294,10.6889306 C18.5528941,10.0165541 18.6641882,9.31891882 18.6641882,8.61167176 C18.6641882,4.37690706 14.6507765,0.931648235 9.7176,0.931648235 L9.7176,0.931648235 Z M0.563247059,11.4534012 L0.472188235,11.2095306 C0.158776471,10.3730835 -4.70588235e-05,9.49908353 -4.70588235e-05,8.61167176 C-4.70588235e-05,3.97298941 4.35924706,0.199365882 9.7176,0.199365882 C15.0759529,0.199365882 19.4352471,3.97298941 19.4352471,8.61167176 C19.4352471,9.48790706 19.2804235,10.3509541 18.9752471,11.1764482 L18.8846588,11.4212129 L18.6114824,11.4212129 C14.6538353,11.4198718 11.8157176,11.4285894 8.89477647,11.4370835 C6.48677647,11.4437894 4.02348235,11.4507188 0.835482353,11.4531776 L0.563247059,11.4534012 Z" id="Fill-29" fill="#0A0109" sketch:type="MSShapeGroup" mask="url(#mask-2)"></path>
                <path d="M5.51195294,7.37995765 L6.08112941,7.54760471 L5.33877647,6.47309882 L5.79665882,6.59872235 L4.9056,5.14779294 L4.01430588,6.59872235 L4.47242353,6.47309882 L3.73007059,7.54760471 L4.29924706,7.37995765 L3.63877647,8.33509882 L4.10936471,8.24971059 L3.25218824,9.11700471 L3.84301176,9.00591059 L3.68795294,9.18719294 C4.72630588,8.74505176 5.63736471,8.54275765 6.39383529,8.47145176 L5.51195294,7.37995765 Z" id="Fill-30" fill="#4D8037" sketch:type="MSShapeGroup" mask="url(#mask-2)"></path>
                <path d="M13.6483294,7.77529176 C13.6483294,7.77529176 11.9391529,7.43172706 10.3600941,7.81195059 C8.78127059,8.19239765 8.46197647,8.63163294 8.46197647,8.63163294 C8.46197647,8.63163294 9.47585882,8.85940941 9.98503529,9.36905647 C10.6313882,9.09746824 11.4518588,8.82968 12.4848,8.61062118 L12.4824471,8.61173882 C13.2946824,8.43380941 14.0568,8.30796235 14.5097412,8.19284471 C15.3215059,8.06833882 13.6483294,7.77529176 13.6483294,7.77529176" id="Fill-31" fill="#8F963E" sketch:type="MSShapeGroup" mask="url(#mask-2)"></path>
                <path d="M9.57734118,9.5513 C9.48557647,9.46479412 9.20957647,9.23567647 8.67804706,9.02801765 C8.66581176,9.02220588 6.13451765,7.78608824 1.88981176,10.4742529 C1.34087059,10.8222882 7.73428235,10.6193235 7.99287059,10.5925 C8.22251765,10.3658412 8.70534118,9.96594706 9.57734118,9.5513" id="Fill-32" fill="#8F963E" sketch:type="MSShapeGroup" mask="url(#mask-2)"></path>
                <path d="M27.9332706,9.62222588 C26.1396235,9.62222588 24.7608,8.45093176 24.7608,6.67208471 C24.7608,4.87826118 26.1396235,3.70719059 27.8589176,3.70719059 C28.8819765,3.70719059 29.6233882,3.98861412 30.1128,4.30021412 L30.2756235,2.29850824 C29.7123294,1.97260235 28.7782118,1.72046118 27.5923294,1.72046118 C25.1165647,1.72046118 22.4330353,3.41056706 22.4330353,6.67208471 C22.4330353,9.91862588 25.1017412,11.6234847 27.5923294,11.6234847 C28.2996235,11.6234847 28.8751529,11.5490494 29.3382118,11.4191788 L30.2579765,9.06027294 C29.7389176,9.40026118 28.9542118,9.62222588 27.9332706,9.62222588" id="Fill-33" fill="#0A0109" sketch:type="MSShapeGroup" mask="url(#mask-2)"></path>
                <path d="M127.150494,2.20755412 L127.105082,2.20755412 L127.105082,2.35798941 L127.150494,2.35798941 C127.195906,2.35798941 127.233788,2.33407176 127.233788,2.28288353 C127.233788,2.23169529 127.195906,2.20755412 127.150494,2.20755412 L127.150494,2.20755412 Z M127.314259,2.72346 L127.153318,2.48204824 L127.105082,2.48204824 L127.105082,2.71764824 L126.959906,2.71764824 L126.959906,2.08170706 L127.163906,2.08170706 C127.273788,2.08170706 127.386965,2.15658941 127.386965,2.28288353 C127.386965,2.35284824 127.346494,2.41163647 127.295671,2.44404824 L127.440376,2.64522471 L127.314259,2.72346 Z M127.155906,1.97418941 C126.914494,1.97418941 126.731906,2.15122471 126.731906,2.40113059 C126.731906,2.64790706 126.914494,2.82516588 127.155906,2.82516588 C127.394729,2.82516588 127.577553,2.64522471 127.577553,2.40113059 C127.577553,2.15122471 127.394729,1.97418941 127.155906,1.97418941 L127.155906,1.97418941 Z M127.155906,2.94609529 C126.844612,2.94609529 126.605788,2.71518941 126.605788,2.40113059 C126.605788,2.08416588 126.844612,1.85594235 127.155906,1.85594235 C127.464847,1.85594235 127.706259,2.08416588 127.706259,2.40113059 C127.706259,2.71518941 127.464847,2.94609529 127.155906,2.94609529 L127.155906,2.94609529 Z" id="Fill-34" fill="#221F20" sketch:type="MSShapeGroup" mask="url(#mask-2)"></path>
            </g>
        </g>
    </g>
</svg>