<?xml version="1.0" encoding="UTF-8" standalone="no"?>
<svg width="197px" height="50px" viewBox="0 0 197 50" version="1.1" xmlns="http://www.w3.org/2000/svg" xmlns:xlink="http://www.w3.org/1999/xlink" xmlns:sketch="http://www.bohemiancoding.com/sketch/ns">
    <!-- Generator: Sketch 3.5.2 (25235) - http://www.bohemiancoding.com/sketch -->
    <title>Artboard 1</title>
    <desc>Created with Sketch.</desc>
    <defs>
        <path id="path-1" d="M0,0.123529412 L157.48307,0.123529412 L157.48307,35 L0,35 L0,0.123529412 Z"></path>
        <path id="path-3" d="M0,0.123529412 L157.48307,0.123529412 L157.48307,35 L0,35"></path>
    </defs>
    <g id="Page-1" stroke="none" stroke-width="1" fill="none" fill-rule="evenodd" sketch:type="MSPage">
        <g id="Artboard-1" sketch:type="MSArtboardGroup">
            <g id="Good-Sam-Logo" sketch:type="MSLayerGroup">
                <rect id="Rectangle-202" fill="#D2232A" sketch:type="MSShapeGroup" x="0" y="0" width="197" height="50"></rect>
                <g id="Logo_GoodSam" transform="translate(20.000000, 5.000000)">
                    <g id="Group-3">
                        <mask id="mask-2" sketch:name="Clip 2" fill="white">
                            <use xlink:href="#path-1"></use>
                        </mask>
                        <g id="Clip-2"></g>
                        <path d="M157.4831,30.5000294 C157.4831,32.9738529 155.463473,34.9979706 152.995073,34.9979706 L17.2652545,34.9979706 L17.2652545,7.19414706 L152.995073,7.19414706 C155.463473,7.19414706 157.4831,9.21826471 157.4831,11.6920882 L157.4831,30.5000294 Z" id="Fill-1" fill="#D12329" sketch:type="MSShapeGroup" mask="url(#mask-2)"></path>
                    </g>
                    <path d="M56.3875298,19.3169706 C56.3875298,21.8149118 55.7378267,23.9781471 54.4396007,25.8081471 C52.7495466,28.1849118 50.2572478,29.3737353 46.9624093,29.3737353 C44.2296437,29.3737353 42.0273804,28.5140294 40.3547343,26.7940294 C38.681498,25.0737353 37.8447324,22.8431471 37.8447324,20.1005 C37.8447324,17.2743235 38.6853337,15.0043235 40.3671264,13.2922647 C42.0486241,11.5813824 44.306357,10.7257941 47.1415055,10.7257941 C50.8458753,10.7257941 53.5600527,12.2166765 55.2863981,15.1952059 L51.2616026,17.1119706 C50.6980545,16.2037353 50.1253599,15.5507941 49.5444037,15.1563824 C48.8767025,14.6943235 48.05764,14.4628529 47.0836754,14.4628529 C45.6653636,14.4628529 44.5544952,15.0513824 43.7507754,16.2269706 C43.0506185,17.2496176 42.6992123,18.5113824 42.6992123,20.0107941 C42.6992123,21.5457941 43.0326204,22.8246176 43.7012067,23.8469706 C44.4695204,25.0407941 45.5889453,25.6375588 47.0588911,25.6375588 C49.1277912,25.6375588 50.5461031,24.6284412 51.315597,22.6122647 L47.2176288,22.6122647 L47.2176288,18.8052059 L56.3875298,18.8052059 L56.3875298,19.3169706 Z" id="Fill-4" fill="#FEFEFE" sketch:type="MSShapeGroup"></path>
                    <path d="M65.4895985,22.9225 C65.4895985,22.2257353 65.2299533,21.6257353 64.7100728,21.1236765 C64.1898973,20.6222059 63.5817965,20.3698529 62.8834099,20.3698529 C62.1673203,20.3698529 61.5547937,20.6169118 61.0440598,21.1107353 C60.5321457,21.6039706 60.2769262,22.2075 60.2769262,22.9225 C60.2769262,23.6201471 60.5368665,24.2113235 61.0558618,24.6969118 C61.5754472,25.1810294 62.1859085,25.4233824 62.8834099,25.4233824 C63.5817965,25.4233824 64.1898973,25.1810294 64.7100728,24.6969118 C65.2299533,24.2113235 65.4895985,23.6201471 65.4895985,22.9225 M69.8448515,22.9151471 C69.8448515,24.8380882 69.1544314,26.4125 67.7724108,27.6377941 C66.4432045,28.7960294 64.7962278,29.3739706 62.8353165,29.3739706 C60.924564,29.3739706 59.2947003,28.7789706 57.948676,27.5875 C56.5489524,26.3619118 55.8496807,24.8045588 55.8496807,22.9151471 C55.8496807,20.9922059 56.5415761,19.4260294 57.9221214,18.2175 C59.2513277,17.0427941 60.890043,16.4554412 62.8353165,16.4554412 C64.8472717,16.4554412 66.5030999,17.0263235 67.7983754,18.1669118 C69.163578,19.3577941 69.8448515,20.9416176 69.8448515,22.9151471" id="Fill-6" fill="#FEFEFE" sketch:type="MSShapeGroup"></path>
                    <path d="M79.3036964,22.9225 C79.3036964,22.2257353 79.0434611,21.6257353 78.5238756,21.1236765 C78.0045852,20.6222059 77.3947141,20.3698529 76.6966226,20.3698529 C75.9814181,20.3698529 75.3668261,20.6169118 74.8566824,21.1107353 C74.3462435,21.6039706 74.090434,22.2075 74.090434,22.9225 C74.090434,23.6201471 74.3500792,24.2113235 74.8699597,24.6969118 C75.3901352,25.1810294 75.998236,25.4233824 76.6966226,25.4233824 C77.3947141,25.4233824 78.0045852,25.1810294 78.5238756,24.6969118 C79.0434611,24.2113235 79.3036964,23.6201471 79.3036964,22.9225 M83.6595395,22.9151471 C83.6595395,24.8380882 82.967349,26.4125 81.5865087,27.6377941 C80.2558271,28.7960294 78.6103257,29.3739706 76.6476441,29.3739706 C74.7363014,29.3739706 73.107913,28.7789706 71.7610035,27.5875 C70.3630502,26.3619118 69.6628934,24.8045588 69.6628934,22.9151471 C69.6628934,20.9922059 70.3533135,19.4260294 71.7359242,18.2175 C73.0654256,17.0427941 74.7035507,16.4554412 76.6476441,16.4554412 C78.6604844,16.4554412 80.3145423,17.0263235 81.611293,18.1669118 C82.9756105,19.3577941 83.6595395,20.9416176 83.6595395,22.9151471" id="Fill-8" fill="#FEFEFE" sketch:type="MSShapeGroup"></path>
                    <path d="M93.2705423,22.8831471 C93.2705423,22.1087353 93.0017505,21.4710882 92.4653472,20.9749118 C91.9295339,20.4766765 91.2697991,20.2281471 90.488208,20.2281471 C89.7042566,20.2281471 89.0622248,20.4766765 88.5609326,20.9749118 C88.0581651,21.4710882 87.8082566,22.1087353 87.8082566,22.8831471 C87.8082566,23.6599118 88.0581651,24.3007941 88.5609326,24.8069706 C89.0622248,25.3131471 89.7042566,25.5669706 90.488208,25.5669706 C91.2880923,25.5669706 91.9507776,25.3181471 92.4783294,24.8202059 C93.0064713,24.3231471 93.2705423,23.6769706 93.2705423,22.8831471 L93.2705423,22.8831471 Z M97.5897991,28.9825588 L93.1277374,28.9825588 L93.1277374,27.6805 C92.7851828,28.0407941 92.3508672,28.3743235 91.8218401,28.6816765 C91.0033677,29.1428529 90.1772239,29.3737353 89.3404583,29.3737353 C87.4990428,29.3737353 86.0161147,28.7552059 84.8904937,27.5152059 C83.7642827,26.2752059 83.2028,24.7305 83.2028,22.8796176 C83.2028,21.1137353 83.714124,19.6357941 84.7373621,18.4478529 C85.811349,17.1905 87.2270054,16.5625588 88.9822659,16.5625588 C90.0235021,16.5625588 91.0033677,16.7949118 91.924518,17.2599118 C92.4868859,17.5425588 92.8878607,17.8249118 93.1277374,18.1072647 L93.1277374,11.2378529 L97.5897991,11.2378529 L97.5897991,28.9825588 Z" id="Fill-10" fill="#FEFEFE" sketch:type="MSShapeGroup"></path>
                    <path d="M117.194457,23.2171765 C117.194457,25.0565882 116.613796,26.5421765 115.451293,27.6748235 C114.288201,28.8080588 112.784324,29.3739412 110.939073,29.3739412 C109.519581,29.3739412 108.285381,29.2162941 107.232933,28.9015882 C106.18255,28.5862941 105.075222,28.0365882 103.912425,27.2518824 L106.016436,23.3404118 C107.624761,24.4680588 108.933019,25.0321765 109.94239,25.0321765 C110.437486,25.0321765 110.848492,24.9007059 111.173049,24.6368824 C111.49672,24.3739412 111.661064,24.001 111.661064,23.5242353 C111.661064,23.1157059 111.498195,22.7845294 111.174524,22.5286471 C111.139118,22.5124706 110.499151,22.2151176 109.250789,21.6348235 L107.07213,20.6380588 C106.526285,20.3824706 106.012896,19.9051176 105.534617,19.2065882 C104.954251,18.3392353 104.662741,17.3692353 104.662741,16.2954118 C104.662741,14.7277647 105.246942,13.4086471 106.416821,12.3351176 C107.585814,11.2624706 108.962819,10.7257059 110.5499,10.7257059 C111.847241,10.7257059 112.912967,10.8489412 113.749437,11.0957059 C114.583842,11.3424706 115.523876,11.8251176 116.564522,12.5398235 L114.644328,16.0395294 C114.301773,15.7001176 113.781598,15.3927647 113.082031,15.1195294 C112.381284,14.8477647 111.791771,14.7115882 111.313788,14.7115882 C110.939073,14.7115882 110.622778,14.8477647 110.366083,15.1195294 C110.109979,15.3927647 109.982812,15.7162941 109.982812,16.0907059 C109.982812,16.7036471 110.410046,17.1895294 111.265695,17.5465882 L113.44701,18.4662941 C115.945504,19.5227647 117.194457,21.1062941 117.194457,23.2171765" id="Fill-12" fill="#FEFEFE" sketch:type="MSShapeGroup"></path>
                    <path d="M126.383123,22.8851471 C126.383123,22.0863235 126.118462,21.4316176 125.58914,20.9219118 C125.060998,20.4119118 124.395067,20.1572059 123.592232,20.1572059 C122.807986,20.1572059 122.17274,20.4160294 121.68561,20.9336765 C121.199956,21.4533824 120.956244,22.1033824 120.956244,22.8851471 C120.956244,23.6666176 121.208217,24.3210294 121.711575,24.8477941 C122.215228,25.3751471 122.85962,25.6392647 123.643866,25.6392647 C124.462929,25.6392647 125.124729,25.3836765 125.627792,24.8730882 C126.131149,24.3645588 126.383123,23.7016176 126.383123,22.8851471 L126.383123,22.8851471 Z M130.381659,28.9827941 L126.239138,28.9827941 L126.239138,27.7569118 C126.069188,27.9257353 125.564356,28.2122059 124.726705,28.6154412 C123.6657,29.1210294 122.824804,29.3739706 122.209622,29.3739706 C120.429577,29.3739706 118.983825,28.7110294 117.871187,27.3845588 C116.810477,26.1436765 116.279385,24.6222059 116.279385,22.8204412 C116.279385,21.0695588 116.863586,19.5657353 118.034055,18.3072059 C119.203638,17.0501471 120.667683,16.4195588 122.426779,16.4195588 C123.024258,16.4195588 123.714679,16.5736765 124.5004,16.8810294 C125.354279,17.2036765 125.943201,17.5872059 126.268348,18.0310294 L126.239138,18.0819118 L126.239138,16.7401471 L130.381659,16.7401471 L130.381659,28.9827941 Z" id="Fill-14" fill="#FEFEFE" sketch:type="MSShapeGroup"></path>
                    <path d="M152.924497,28.9826471 L148.284224,28.9826471 L148.284224,21.7055882 C148.284224,21.2135294 148.070607,20.8220588 147.643668,20.5329412 C147.218204,20.2435294 146.750252,20.0976471 146.238043,20.0976471 C145.55677,20.0976471 145.037774,20.3111765 144.679582,20.7358824 C144.321685,21.1620588 144.142589,21.7152941 144.142589,22.3955882 L144.142589,28.9826471 L139.678757,28.9826471 L139.678757,22.0129412 C139.678757,20.7358824 139.058264,20.0976471 137.817573,20.0976471 C136.321662,20.0976471 135.572527,20.8644118 135.572527,22.3955882 L135.572527,28.9826471 L131.111351,28.9826471 L131.111351,16.7402941 L135.572527,16.7402941 L135.572527,18.2094118 C136.579832,17.5064706 137.177606,17.1044118 137.365849,17.0011765 C138.11587,16.59 138.901001,16.3841176 139.719474,16.3841176 C140.810574,16.3841176 141.723758,16.6411765 142.457845,17.1541176 C142.866787,17.4455882 143.302282,17.9085294 143.763448,18.5408824 C144.632669,17.7952941 145.21392,17.3373529 145.504251,17.1641176 C146.3897,16.645 147.345666,16.3841176 148.369494,16.3841176 C151.406458,16.3841176 152.924497,18.0320588 152.924497,21.3252941 L152.924497,28.9826471 Z" id="Fill-16" fill="#FEFEFE" sketch:type="MSShapeGroup"></path>
                    <path d="M34.2405326,17.5611765 C34.2405326,26.7826471 26.7435727,34.2573529 17.4931227,34.2573529 C8.24237759,34.2573529 0.745122689,26.7826471 0.745122689,17.5611765 C0.745122689,8.34176471 8.24237759,0.866470588 17.4931227,0.866470588 C26.7435727,0.866470588 34.2405326,8.34176471 34.2405326,17.5611765" id="Fill-18" fill="#D12329" sketch:type="MSShapeGroup"></path>
                    <path d="M21.4093983,11.9042941 L22.1310939,12.7781176 C22.1310939,12.7781176 21.3580594,13.3687059 20.8172303,14.1398824 C21.3837289,14.7560588 21.5637102,16.6495882 21.7448717,17.4784118 C21.9162965,16.4822353 23.0076915,15.6804706 23.935333,15.6804706 C25.0429557,15.6804706 25.9703021,16.9387059 25.9703021,18.1204706 C25.9703021,19.7898824 24.8880538,20.5601765 24.0639754,20.9972353 C24.1926177,21.3304706 24.3755496,22.0754706 24.3755496,23.1366471 C24.3755496,27.4695882 20.0276728,30.8351765 16.3849688,30.8351765 C11.3348698,30.8351765 8.70478207,23.4363529 8.70478207,20.6369412 C8.70478207,18.5313529 9.55718543,16.7592941 11.7644646,16.7592941 C11.2318969,15.5519412 11.6868661,13.6110588 12.3005729,12.8419412 C13.3058129,11.584 16.437488,12.2866471 18.7297419,12.6245882 C19.7512097,12.7742941 21.4093983,11.9042941 21.4093983,11.9042941" id="Fill-20" fill="#FEFEFE" sketch:type="MSShapeGroup"></path>
                    <path d="M15.5334211,5.56367647 C19.1383585,4.74279412 21.5206032,4.91014706 21.9988814,5.24485294 C21.7129767,5.75220588 19.6390607,6.93338235 16.0347134,7.75308824 C12.4315462,8.57485294 10.0493016,8.40691176 9.5736788,8.07279412 C9.85456769,7.56632353 11.9267134,6.38426471 15.5334211,5.56367647 M15.2616788,4.37867647 C12.6711279,4.96838235 9.34973483,6.12573529 8.52034547,7.44514706 C8.28135387,7.82426471 8.28902521,8.14955882 8.33652848,8.35632353 C8.38344164,8.56102941 8.51946032,8.85720588 8.89860131,9.09455882 C10.2233819,9.92426471 13.717085,9.52897059 16.3067507,8.93897059 C17.0685733,8.76514706 23.7399795,7.18073529 23.2395724,4.96455882 L23.2383922,4.96014706 C22.7191018,2.74720588 16.0229113,4.20514706 15.2616788,4.37867647" id="Fill-22" fill="#FFF100" sketch:type="MSShapeGroup"></path>
                    <path d="M23.8960026,30.1573824 C23.8960026,30.1115 23.8700381,30.0815 23.817814,30.0679706 C23.7968654,30.0647353 23.7523126,30.0620882 23.6832706,30.0620882 L23.4369027,30.0620882 L23.4369027,30.2738529 L23.6832706,30.2738529 C23.7555582,30.2738529 23.8054218,30.2691471 23.8325666,30.2597353 C23.8741688,30.2447353 23.8960026,30.2103235 23.8960026,30.1573824 L23.8960026,30.1573824 Z M24.1178812,30.9335588 L23.8529251,30.9335588 L23.610983,30.4815 L23.4369027,30.4815 L23.4369027,30.9335588 L23.2094181,30.9335588 L23.2094181,29.8600294 L23.7354947,29.8600294 C23.8611866,29.8600294 23.9532426,29.8850294 24.012843,29.9344412 C24.0736235,29.9826765 24.1040138,30.0679706 24.1040138,30.1888529 C24.1040138,30.3665 24.0213994,30.4629706 23.8567608,30.4800294 L24.1178812,30.9335588 Z M24.4034909,30.3976765 C24.4034909,30.1741471 24.3317935,29.9923824 24.191054,29.8529706 C24.0497244,29.7126765 23.8656123,29.6429706 23.6378327,29.6429706 C23.4094629,29.6429706 23.2244657,29.7115 23.0852015,29.8500294 C22.9459373,29.9879706 22.8763051,30.1703235 22.8763051,30.3976765 C22.8763051,30.6244412 22.9465274,30.8076765 23.0863817,30.9473824 C23.2268261,31.0856176 23.410053,31.1553235 23.6378327,31.1553235 C23.8656123,31.1553235 24.0497244,31.0856176 24.191054,30.9473824 C24.3317935,30.8076765 24.4034909,30.6244412 24.4034909,30.3976765 L24.4034909,30.3976765 Z M24.6687421,30.3976765 C24.6687421,30.6870882 24.5693098,30.9303235 24.3707402,31.1288529 C24.1712855,31.3265 23.9272781,31.4253235 23.6372426,31.4253235 C23.3486824,31.4253235 23.105265,31.3265 22.9055152,31.1265 C22.7054704,30.9276765 22.605743,30.6847353 22.605743,30.3976765 C22.605743,30.1115 22.7051754,29.8694412 22.904335,29.6709118 C23.1029046,29.4732647 23.3475021,29.3732647 23.6372426,29.3732647 C23.9272781,29.3732647 24.1712855,29.4732647 24.3707402,29.6709118 C24.5693098,29.8694412 24.6687421,30.1115 24.6687421,30.3976765 L24.6687421,30.3976765 Z" id="Fill-24" fill="#0A0209" sketch:type="MSShapeGroup"></path>
                    <path id="Fill-26" fill="#0A0209" sketch:type="MSShapeGroup"></path>
                    <path id="Fill-28" fill="#0A0209" sketch:type="MSShapeGroup"></path>
                    <path id="Fill-30" fill="#0A0209" sketch:type="MSShapeGroup" d="M17.8097128,16.3673235 L17.8103029,16.3676176 L17.8088276,16.3670294 C17.8088276,16.3673235 17.8088276,16.3673235 17.8097128,16.3673235"></path>
                    <path id="Fill-32" fill="#0A0209" sketch:type="MSShapeGroup" d="M21.3632818,21.2209706 C21.3638719,21.2209706 21.3653472,21.2200882 21.3653472,21.2200882 C21.3653472,21.2200882 21.3638719,21.2209706 21.3632818,21.2209706"></path>
                    <path id="Fill-34" fill="#0A0209" sketch:type="MSShapeGroup"></path>
                    <path d="M13.0071914,16.8660882 C13.1293427,16.6384412 13.2960467,16.8078529 13.2960467,16.8078529 C13.5533315,17.0502059 13.6365359,18.0128529 13.5574622,18.3266765 C13.3768908,18.4975588 12.8649767,18.4490294 12.7581681,18.2866765 C12.6841102,18.2193235 12.7679048,17.2178529 13.0071914,16.8660882 M23.5909785,20.8128529 L23.5617684,20.8260882 L23.5723903,20.8569706 C24.7387283,24.3852059 22.599901,27.7934412 19.8842484,29.3375588 C17.813578,30.5146176 14.8285434,30.8905 12.659916,28.4152059 C8.25804482,22.9572647 8.73130719,19.0622647 10.1242446,17.7763824 C10.7196583,17.2260882 11.4466648,17.1907941 11.9759869,17.6863824 C11.9759869,17.6925588 12.0146387,17.7822647 12.0146387,17.7822647 C11.9709711,18.0078529 11.9414659,18.2572647 11.9414659,18.4569706 C11.9414659,18.6443235 11.9674304,18.7893235 12.0317516,18.8275588 C12.2492045,19.0452059 13.0086667,19.1369706 13.5905079,19.0960882 C13.5474304,19.1066765 13.4710121,19.3078529 13.4710121,19.3078529 C13.4686517,19.3113824 13.3751204,19.4946176 13.3751204,19.4946176 C13.1957292,19.8207941 12.8425528,20.4602059 12.8425528,21.3860882 C12.8425528,21.4993235 12.8478637,21.6157941 12.8593707,21.7378529 C12.9068739,22.3616765 13.2565098,22.8163824 13.8687414,23.0537353 C15.0147208,23.4955 16.7145117,23.0760882 17.411423,22.4202059 C17.7460112,22.1278529 18.2986424,21.4955 18.2293053,20.5566765 C18.1163007,20.2349118 18.0118525,19.9407941 17.4474192,19.8622647 C16.9995313,19.8037353 16.3813987,19.8222647 16.1064108,20.0625588 L15.969212,20.3566765 C15.969212,20.3605 16.0949038,20.6190294 16.0949038,20.6190294 C16.239479,20.7243235 16.4707993,20.6749118 16.7156919,20.6216765 C17.02107,20.5566765 17.308155,20.4949118 17.4223399,20.7175588 C17.5306237,20.9587353 17.4822353,21.2210882 17.2827806,21.4781471 C16.7915201,22.1057941 15.5458133,22.5407941 14.6703959,22.3875588 C14.3390532,22.3299118 13.9106387,22.1605 13.7530812,21.6784412 C13.2925061,20.2796176 14.8037591,18.7875588 15.5295854,18.0705 L15.8275873,17.7696176 C15.8747955,17.7219706 15.888958,17.6537353 15.8688945,17.5772647 C15.831718,17.4446176 15.6945191,17.3149118 15.5490588,17.2769706 C15.4224818,17.2440294 15.2997404,17.2787353 15.2032586,17.3763824 C15.2032586,17.3775588 14.4107507,18.0049118 14.4107507,18.0049118 C14.4196022,17.2399118 14.1381232,16.2999118 13.6206032,15.9816765 C13.6164725,15.9790294 13.1181307,15.6546176 12.7401699,16.1037353 C12.7428254,16.1010882 12.4173838,16.5516765 12.4173838,16.5516765 C12.0574211,16.1149118 12.0990233,14.0522647 12.7236471,13.3499118 C13.832155,12.2328529 16.0913632,12.8178529 17.9068142,13.2890294 L18.4160728,13.4199118 C19.4605546,13.5557941 20.3380373,13.1963824 21.0328833,12.8043235 C20.7398973,13.0616765 20.2716508,13.4722647 20.2716508,13.4722647 C20.0406256,13.6269706 19.9116881,13.9040294 19.9116881,14.2410882 C19.9116881,14.2807941 19.9134585,14.3216765 19.9172941,14.3640294 C20.5640467,15.0590294 20.6631839,15.9669706 20.7584855,16.8452059 C20.81307,17.3478529 20.8641139,17.8213824 21.0101643,18.2472647 C21.4589374,18.3805 21.9923903,18.2813824 22.3036695,18.0340294 C22.312226,18.0240294 22.571281,17.3796176 22.571281,17.3796176 C22.7176265,16.9325588 22.8683978,16.4710882 23.2761587,16.2863824 C23.703098,16.0355 24.1725247,16.0419706 24.6012344,16.3028529 C25.2279234,16.6849118 25.6168011,17.4999118 25.5684127,18.3328529 C25.5338917,18.9346176 25.2305789,20.0584412 23.5909785,20.8128529 M26.5102166,18.2028529 C26.5102166,17.9484412 26.483662,17.6993235 26.4355686,17.4646176 C26.1871354,16.2616765 25.3972829,15.3837353 24.5103585,15.3146176 C24.4419066,15.2516765 24.4141718,15.1755 24.4141718,15.0875588 C24.4141718,14.9649118 24.4655107,14.8187353 24.5236359,14.6516765 L24.6779477,13.9593235 C24.6823735,13.8013824 24.6847339,13.6440294 24.6847339,13.4896176 C24.6847339,12.5090294 24.5864818,11.6319706 24.127972,11.3310882 C23.9081587,11.1860882 23.5962894,11.2166765 23.2286555,11.3431471 C23.2628814,11.3202059 23.3100896,11.2902059 23.3100896,11.2902059 C23.3859178,11.0602059 23.4168982,10.8519706 23.4168982,10.6640294 C23.4168982,10.1366765 23.1655145,9.77108824 22.9185565,9.53667647 C22.3154715,8.96314706 21.2462054,8.73579412 20.4840878,9.01755882 C20.4888086,9.01638235 18.3667993,9.59197059 18.3667993,9.59197059 C16.4197554,10.1581471 14.4063249,10.7440294 12.0615518,10.4499118 C11.2365882,10.3525588 10.6273072,10.9216765 10.4718151,11.5060882 C10.4461457,11.6057941 10.430803,11.7122647 10.430803,11.8219706 C10.430803,12.3113824 10.7231989,12.8672647 11.557014,13.2172647 C11.0554267,13.9855 11.0527712,14.8690294 11.0510009,15.7231471 C11.0510009,15.7231471 11.0462801,16.2175588 11.0462801,16.2222647 C11.0371335,16.2087353 10.7323455,16.3740294 10.7323455,16.3740294 C9.3444239,17.1037353 6.76213445,18.4628529 9.09008964,24.7019706 C11.0495257,28.9193235 13.4391466,31.1940294 16.1946312,31.4649118 C19.2433968,31.7646176 22.0611373,29.4972647 23.5481961,27.4652059 C24.587662,25.7587353 24.8476022,24.4290294 24.8476022,23.3237353 C24.8476022,22.7275588 24.7720691,22.1978529 24.702732,21.7084412 L24.6313296,21.1740294 C26.0204314,20.4949118 26.5102166,19.2934412 26.5102166,18.2028529" id="Fill-36" fill="#0A0209" sketch:type="MSShapeGroup"></path>
                    <path d="M23.4714237,17.4452647 C23.4454592,17.4676176 22.8049027,18.0255588 22.8544713,18.6652647 C22.8795507,18.9999706 23.0890372,19.2923235 23.4770297,19.5346765 C23.8632519,19.7379118 24.1010633,19.6040882 24.208757,19.5052647 C24.3804769,19.3485 24.4551249,19.0696765 24.3766413,18.8832059 C24.3297281,18.7708529 24.2367869,18.7120294 24.1140456,18.7182059 C24.1096198,18.7182059 23.7000885,18.7046765 23.59387,18.4699706 C23.5770521,18.4317353 23.5684956,18.3887941 23.5684956,18.3437941 C23.5684956,18.1790882 23.6791399,17.9658529 23.898363,17.7064412 C23.9856982,17.5929118 24.0317262,17.4793824 24.0317262,17.3896765 C24.0317262,17.3361471 24.0152034,17.2902647 23.9809774,17.2593824 C23.8821352,17.1696765 23.691237,17.2393824 23.4714237,17.4452647" id="Fill-38" fill="#0A0209" sketch:type="MSShapeGroup"></path>
                    <path d="M17.7927178,18.6095294 C17.6183425,18.7815882 17.104068,18.7321765 16.9931287,18.5686471 C16.9255619,18.5027647 17.0028654,17.5001176 17.2459877,17.1501176 C17.3699092,16.9189412 17.5354331,17.0886471 17.5354331,17.0886471 C17.7927178,17.3333529 17.8771025,18.2962941 17.7927178,18.6095294 M17.8098308,16.3671765 C17.8024545,16.3624706 17.3020474,16.0380588 16.9273322,16.4901176 C16.3292631,17.0633529 16.0826002,18.5168824 16.1348243,19.0030588 C16.1469214,19.1165882 16.1740661,19.1854118 16.2168486,19.2112941 C16.5231119,19.5212941 18.0325946,19.6221765 18.5678177,19.2836471 C18.6294835,19.1315882 18.6607589,18.9045294 18.6607589,18.6407059 C18.6607589,17.8418824 18.3754443,16.7145294 17.8098308,16.3671765" id="Fill-40" fill="#0A0209" sketch:type="MSShapeGroup"></path>
                    <path d="M21.3638719,21.2209706 C21.3606263,21.2247941 21.0847533,21.5039118 21.0847533,21.5039118 C20.4087907,22.2265588 18.8258401,23.9168529 16.3848803,24.2318529 C13.9427402,24.4336176 12.0431996,22.5977353 11.3409774,21.7977353 C11.0872332,21.5459706 10.8804022,21.5595 10.7789046,21.6474412 C10.6658999,21.7447941 10.643181,21.9633235 10.816081,22.1962647 C11.7977169,23.3042059 13.2782846,24.9753824 16.3633415,24.9250882 C19.4292202,24.8703824 21.7970073,21.5868529 21.8209064,21.5547941 C21.9710876,21.3268529 21.9958719,21.1397941 21.8884732,21.0518529 C21.7925815,20.9727353 21.5928317,20.9947941 21.3638719,21.2209706" id="Fill-42" fill="#0A0209" sketch:type="MSShapeGroup"></path>
                    <path d="M18.1984134,25.1522059 L18.1990035,25.1507353 C17.3820063,25.9410294 16.0002809,26.0263235 14.5928859,25.3739706 C14.3479933,25.2472059 14.2293826,25.3045588 14.173913,25.3739706 C14.0685796,25.5051471 14.1246394,25.7863235 14.24325,25.9254412 C14.5952463,26.3057353 15.3476273,26.5489706 16.2068168,26.5595588 C17.1919933,26.5730882 18.0951455,26.2827941 18.563392,25.8036765 C18.8062192,25.5277941 18.7716982,25.2725 18.6294835,25.1413235 C18.5203145,25.0401471 18.3376777,25.0110294 18.1984134,25.1522059" id="Fill-44" fill="#0A0209" sketch:type="MSShapeGroup"></path>
                    <g id="Group-48">
                        <mask id="mask-4" sketch:name="Clip 47" fill="white">
                            <use xlink:href="#path-3"></use>
                        </mask>
                        <g id="Clip-47"></g>
                        <path d="M1.49068796,17.5611765 C1.49068796,8.765 8.66958245,1.60970588 17.4930932,1.60970588 C26.317194,1.60970588 33.4952034,8.765 33.4952034,17.5611765 C33.4952034,26.3573529 26.317194,33.5135294 17.4930932,33.5135294 C8.66958245,33.5135294 1.49068796,26.3573529 1.49068796,17.5611765 M8.85154062e-05,17.5611765 C8.85154062e-05,27.1758824 7.84727432,35 17.4930932,35 C27.1383219,35 34.9858028,27.1758824 34.9858028,17.5611765 C34.9858028,7.94588235 27.1383219,0.123529412 17.4930932,0.123529412 C7.84727432,0.123529412 8.85154062e-05,7.94588235 8.85154062e-05,17.5611765" id="Fill-46" fill="#FEFEFE" sketch:type="MSShapeGroup" mask="url(#mask-4)"></path>
                    </g>
                    <path d="M12.651212,18.1390588 C12.651212,17.9349412 12.8170308,17.7693529 13.0217965,17.7693529 C13.2268571,17.7693529 13.3929711,17.9349412 13.3929711,18.1390588 C13.3929711,18.3425882 13.2268571,18.5087647 13.0217965,18.5087647 C12.8170308,18.5087647 12.651212,18.3425882 12.651212,18.1390588" id="Fill-49" fill="#0A0209" sketch:type="MSShapeGroup"></path>
                    <path d="M16.8729838,18.4147941 C16.8729838,18.2103824 17.0388026,18.0450882 17.2441584,18.0450882 C17.4486289,18.0450882 17.6147429,18.2103824 17.6147429,18.4147941 C17.6147429,18.6183235 17.4486289,18.7839118 17.2441584,18.7839118 C17.0388026,18.7839118 16.8729838,18.6183235 16.8729838,18.4147941" id="Fill-51" fill="#0A0209" sketch:type="MSShapeGroup"></path>
                </g>
            </g>
        </g>
    </g>
</svg>